<svg width="90" height="88" viewBox="0 0 90 88" fill="none" xmlns="http://www.w3.org/2000/svg">
<g clip-path="url(#clip0)">
<path d="M56.2565 0L88.4482 11.1112L65.72 74.0631L33.5283 62.9519L56.2565 0Z" fill="#EAEAEA"/>
<path d="M51.6079 12.8759L52.6399 10.014L54.103 10.5193L53.071 13.3804L51.6079 12.8759Z" fill="#B22234"/>
<path d="M79.6747 22.5639L77.0152 21.646L78.0487 18.7849L80.7082 19.7028L79.6747 22.5639ZM74.3543 20.7281L71.6895 19.8087L72.723 16.9468L75.3824 17.8662L74.3543 20.7281ZM69.0331 18.8908L66.3736 17.9729L67.4071 15.111L70.0665 16.0215L69.0331 18.8908ZM63.7134 17.055L61.0524 16.1356L62.0859 13.2752L64.7468 14.1931L63.7134 17.055ZM58.3914 15.2177L55.7319 14.3072L56.7654 11.4453L59.4249 12.3647L58.3914 15.2177Z" fill="#B22234"/>
<path d="M82.3369 23.4804L83.3704 20.6192L84.8335 21.1245L83.8 23.9856L82.3369 23.4804Z" fill="#D3C7A1"/>
<path d="M59.6097 59.0809L54.7894 54.2002L47.9043 55.0411L49.453 50.7486L53.4134 48.8973L61.1615 27.4357L65.1211 25.5851L67.0146 29.4567L59.2665 50.9168L61.1592 54.7892L59.6097 59.0809Z" fill="#45B8C4"/>
<path d="M68.648 47.7201L62.3652 42.3342L64.9489 35.1798L70.1982 43.4276L68.648 47.7201Z" fill="#B22234"/>
<path d="M48.1636 40.6494L56.5125 40.3131L59.0962 33.1588L49.7123 36.357L48.1636 40.6494Z" fill="#B22234"/>
<path d="M39.6275 43.9996C39.6275 51.5414 33.3751 57.6548 25.6619 57.6548C17.9494 57.6548 11.6963 51.5414 11.6963 43.9996C11.6963 36.4585 17.9494 30.3443 25.6619 30.3443C33.3751 30.3443 39.6275 36.4585 39.6275 43.9996Z" fill="#C0F5F9"/>
<path d="M1.55127 21.2408H48.1033C49.8172 21.2408 51.2068 22.5995 51.2068 24.2753V84.9654C51.2068 86.6412 49.8172 87.9999 48.1033 87.9999H4.65474C2.9401 87.9999 1.55127 86.6412 1.55127 84.9654V21.2408Z" fill="#424C59"/>
<path d="M25.6633 28.827C17.0939 28.827 10.146 35.6198 10.146 43.9995C10.146 52.3792 17.0939 59.1721 25.6633 59.1721C34.2335 59.1721 41.1807 52.3792 41.1807 43.9995C41.1716 35.6243 34.2297 28.8367 25.6633 28.827ZM13.2495 43.9995C13.2525 43.3795 13.3048 42.7601 13.4048 42.1474L17.2425 41.3125C17.8304 41.1851 18.4237 41.0791 19.0177 40.9791C18.8669 42.9898 18.8669 45.0093 19.0177 47.0207C18.4237 46.9207 17.8304 46.814 17.2425 46.6866L13.4048 45.8524C13.3048 45.2397 13.2525 44.6204 13.2495 43.9995ZM22.1659 40.5813C24.492 40.3783 26.8324 40.3783 29.1585 40.5813C29.3661 42.8557 29.3661 45.1434 29.1585 47.4178C26.8324 47.6215 24.492 47.6215 22.1659 47.4178C21.9583 45.1434 21.9583 42.8557 22.1659 40.5813ZM32.3037 40.9791C32.8977 41.0791 33.491 41.1851 34.0789 41.3125L37.9158 42.1474C38.131 43.3735 38.131 44.6263 37.9158 45.8524L34.0789 46.6866C33.491 46.814 32.8977 46.9207 32.3037 47.0222C32.4537 45.0101 32.4537 42.9905 32.3037 40.9791ZM36.8687 38.8121L34.7525 38.3573C33.8213 38.1565 32.8901 37.9972 31.9498 37.8594C31.8074 36.94 31.6392 36.0251 31.4392 35.119L30.9739 33.0498C33.5569 34.2522 35.6382 36.2866 36.8687 38.8121ZM27.5583 32.0178L28.4115 35.7717C28.5425 36.3466 28.6524 36.926 28.7547 37.5075C26.6976 37.3601 24.6314 37.3601 22.5743 37.5075C22.6766 36.926 22.7849 36.3466 22.9175 35.7717L23.7706 32.0178C25.0239 31.8097 26.3051 31.8097 27.5583 32.0178ZM20.358 33.0439L19.8928 35.1131C19.6883 36.0236 19.5254 36.9341 19.3837 37.8535C18.4434 37.9913 17.5076 38.1565 16.5818 38.3513L14.4648 38.8062C15.6953 36.2814 17.7751 34.2471 20.3565 33.0439H20.358ZM14.4618 49.1869L16.578 49.6426C17.5092 49.8426 18.4403 50.0019 19.3806 50.1397C19.5216 51.0598 19.6913 51.9747 19.8898 52.8801L20.355 54.95C17.7713 53.7476 15.6884 51.7125 14.4572 49.1869H14.4618ZM23.7722 55.9812L22.919 52.2281C22.7864 51.654 22.6781 51.0731 22.5758 50.4938C23.6032 50.5664 24.6352 50.6168 25.6671 50.6168C26.6983 50.6168 27.7273 50.5664 28.7562 50.4938C28.6539 51.0731 28.5441 51.654 28.4137 52.2281L27.5598 55.9812C26.3066 56.1902 25.0254 56.1902 23.7722 55.9812ZM30.9724 54.9559L31.4376 52.886C31.6437 51.9762 31.8051 51.0657 31.9483 50.1463C32.8871 50.0078 33.8243 49.8426 34.751 49.6485L36.8672 49.1936C35.636 51.7192 33.5531 53.7535 30.9694 54.9559H30.9724Z" fill="#FECE2F"/>
<path d="M13.249 71.3101H38.0768V74.3446H13.249V71.3101Z" fill="#B22234"/>
<path d="M16.3525 77.379H34.9734V80.4135H16.3525V77.379Z" fill="#1E82D9"/>
<path d="M24.1113 65.241H27.2148V68.2755H24.1113V65.241Z" fill="#FCC63D"/>
<path d="M17.9043 65.241H21.0078V68.2755H17.9043V65.241Z" fill="#B22234"/>
<path d="M30.3179 65.241H33.4213V68.2755H30.3179V65.241Z" fill="#1E82D9"/>
<path d="M42.7306 21.2408V14.565C42.7313 13.6234 42.2843 12.7359 41.5213 12.161C40.7591 11.5868 39.7673 11.3905 38.8361 11.6306L1.55127 21.2408H42.7306Z" fill="#6B9777"/>
</g>
<defs>
<clipPath id="clip0">
<rect width="90" height="88" fill="white"/>
</clipPath>
</defs>
</svg>
