<svg width="79" height="78" viewBox="0 0 79 78" fill="none" xmlns="http://www.w3.org/2000/svg">
<g clip-path="url(#clip0)">
<path d="M62.5156 5.04859L62.5156 72.0844C62.5156 74.8714 60.1998 77.1325 57.3434 77.1325L6.5341 77.1325C3.67776 77.1325 1.36377 74.8714 1.36377 72.0844L1.36377 5.04859C1.36377 2.25992 3.67791 0.000488269 6.5341 0.000488255L57.3434 0.000487994C60.1998 0.000487979 62.5156 2.26007 62.5156 5.04859Z" fill="#424C59"/>
<path d="M62.5153 5.0481L62.5153 12.975L1.36377 12.975L1.36377 5.0481C1.36377 2.25959 3.67776 -1.18716e-08 6.5341 -2.65256e-08L57.3432 -2.87194e-07C60.1995 -3.01848e-07 62.5153 2.25959 62.5153 5.0481Z" fill="#EAEAEA"/>
<path d="M9.60051 8.96045C11.0712 8.96045 12.2635 7.79637 12.2635 6.3604C12.2635 4.92443 11.0712 3.76035 9.60051 3.76035C8.12977 3.76035 6.9375 4.92443 6.9375 6.3604C6.9375 7.79637 8.12977 8.96045 9.60051 8.96045Z" fill="#F9572B"/>
<path d="M18.5668 8.96045C20.0376 8.96045 21.2298 7.79637 21.2298 6.3604C21.2298 4.92443 20.0376 3.76035 18.5668 3.76035C17.0961 3.76035 15.9038 4.92443 15.9038 6.3604C15.9038 7.79637 17.0961 8.96045 18.5668 8.96045Z" fill="#FCC63D"/>
<path d="M27.5317 8.96045C29.0024 8.96045 30.1947 7.79637 30.1947 6.3604C30.1947 4.92443 29.0024 3.76035 27.5317 3.76035C26.0609 3.76035 24.8687 4.92443 24.8687 6.3604C24.8687 7.79637 26.0609 8.96045 27.5317 8.96045Z" fill="#45B8C4"/>
<path d="M62.3104 38.8489C70.7747 38.8489 77.6364 32.1495 77.6364 23.8852C77.6364 15.621 70.7747 8.92157 62.3104 8.92157C53.8461 8.92157 46.9844 15.621 46.9844 23.8852C46.9844 32.1495 53.8461 38.8489 62.3104 38.8489Z" fill="#45B8C4"/>
<path d="M41.021 23.4297L14.1612 23.4297C13.4928 23.4297 12.9512 22.9007 12.9512 22.2483C12.9512 21.5958 13.4928 21.0669 14.1612 21.0669L41.0209 21.0669C41.6893 21.0669 42.2309 21.5958 42.2309 22.2483C42.2307 22.9007 41.6891 23.4297 41.021 23.4297Z" fill="#FCC63D"/>
<path d="M8.75795 23.429C7.64933 23.429 7.12487 22.023 7.9897 21.3354C8.84497 20.6554 10.1682 21.4079 9.94388 22.4791C9.8297 23.0245 9.329 23.429 8.75795 23.429Z" fill="white"/>
<path d="M41.021 36.6299L14.1612 36.6299C13.4928 36.6299 12.9512 36.1009 12.9512 35.4485C12.9512 34.796 13.4928 34.2671 14.1612 34.2671L41.0209 34.2671C41.6893 34.2671 42.2309 34.796 42.2309 35.4485C42.2307 36.1009 41.6891 36.6299 41.021 36.6299Z" fill="#FCC63D"/>
<path d="M8.75775 36.63C8.2515 36.63 7.78984 36.3107 7.61826 35.8461C7.44946 35.3888 7.59327 34.8605 7.97423 34.5469C8.7849 33.879 10.068 34.5291 9.96173 35.5642C9.90062 36.1599 9.37092 36.63 8.75775 36.63Z" fill="white"/>
<path d="M51.9095 43.23L44.3282 43.23C43.6597 43.23 43.1182 42.701 43.1182 42.0486C43.1182 41.3961 43.6597 40.8672 44.3282 40.8672L51.9095 40.8672C52.5779 40.8672 53.1195 41.3961 53.1195 42.0486C53.1194 42.701 52.5776 43.23 51.9095 43.23Z" fill="white"/>
<path d="M40.2946 43.2299L26.1797 43.2299C25.5113 43.2299 24.9697 42.701 24.9697 42.0485C24.9697 41.3961 25.5113 40.8672 26.1797 40.8672L40.2946 40.8672C40.9631 40.8672 41.5046 41.3961 41.5046 42.0485C41.5046 42.701 40.9629 43.2299 40.2946 43.2299Z" fill="#F9572B"/>
<path d="M22.1465 43.2299L14.1612 43.2299C13.4928 43.2299 12.9512 42.701 12.9512 42.0485C12.9512 41.3961 13.4928 40.8672 14.1612 40.8672L22.1465 40.8672C22.8149 40.8672 23.3565 41.3961 23.3565 42.0485C23.3565 42.701 22.8149 43.2299 22.1465 43.2299Z" fill="white"/>
<path d="M8.75765 43.2316C7.66662 43.2316 7.13846 41.8699 7.95639 41.1652C8.77123 40.4632 10.0966 41.1391 9.95808 42.1965C9.88155 42.7789 9.36095 43.2316 8.75765 43.2316Z" fill="white"/>
<path d="M33.7615 49.83L14.1612 49.83C13.4928 49.83 12.9512 49.3011 12.9512 48.6486C12.9512 47.9962 13.4928 47.4673 14.1612 47.4673L33.7613 47.4673C34.4298 47.4673 34.9713 47.9962 34.9713 48.6486C34.9713 49.3011 34.4298 49.83 33.7615 49.83Z" fill="#FCC63D"/>
<path d="M8.75774 49.8297C8.2734 49.8297 7.82532 49.5367 7.6397 49.1005C7.43001 48.6074 7.5948 48.0204 8.03424 47.7017C8.91435 47.0635 10.1891 47.8618 9.93533 48.9152C9.80834 49.4435 9.31505 49.8297 8.75774 49.8297Z" fill="white"/>
<path d="M45.8604 56.4301L42.1504 56.4301C41.482 56.4301 40.9404 55.9012 40.9404 55.2487C40.9404 54.5963 41.482 54.0674 42.1504 54.0674L45.8604 54.0674C46.5288 54.0674 47.0703 54.5963 47.0703 55.2487C47.0703 55.9012 46.5286 56.4301 45.8604 56.4301Z" fill="#F9572B"/>
<path d="M38.117 56.4301L27.3897 56.4301C26.7213 56.4301 26.1797 55.9012 26.1797 55.2487C26.1797 54.5963 26.7213 54.0674 27.3897 54.0674L38.117 54.0674C38.7854 54.0674 39.327 54.5963 39.327 55.2487C39.327 55.9012 38.7853 56.4301 38.117 56.4301Z" fill="#FCC63D"/>
<path d="M23.3563 56.4301L14.1612 56.4301C13.4928 56.4301 12.9512 55.9012 12.9512 55.2487C12.9512 54.5963 13.4928 54.0674 14.1612 54.0674L23.3563 54.0674C24.0247 54.0674 24.5663 54.5963 24.5663 55.2487C24.5662 55.9012 24.0246 56.4301 23.3563 56.4301Z" fill="white"/>
<path d="M8.75761 56.431C7.66828 56.431 7.13857 55.0737 7.95326 54.3671C8.7681 53.6604 10.0963 54.3391 9.95789 55.3965C9.88166 55.9794 9.36076 56.431 8.75761 56.431Z" fill="white"/>
<path d="M51.426 63.03L34.1651 63.03C33.4967 63.03 32.9551 62.5011 32.9551 61.8487C32.9551 61.1962 33.4967 60.6673 34.1651 60.6673L51.426 60.6673C52.0944 60.6673 52.636 61.1962 52.636 61.8487C52.636 62.5011 52.0942 63.03 51.426 63.03Z" fill="white"/>
<path d="M30.1317 63.0301L14.1612 63.0301C13.4928 63.0301 12.9512 62.5011 12.9512 61.8487C12.9512 61.1962 13.4928 60.6673 14.1612 60.6673L30.1317 60.6673C30.8001 60.6673 31.3417 61.1962 31.3417 61.8487C31.3417 62.5011 30.8001 63.0301 30.1317 63.0301Z" fill="#F9572B"/>
<path d="M8.7578 63.0308C7.67695 63.0308 7.14231 61.6846 7.94435 60.9736C8.74268 60.2658 10.0715 60.9086 9.96163 61.9644C9.89976 62.5591 9.37129 63.0308 8.7578 63.0308Z" fill="white"/>
<path d="M22.1465 69.6302L14.1612 69.6302C13.4928 69.6302 12.9512 69.1012 12.9512 68.4488C12.9512 67.7963 13.4928 67.2674 14.1612 67.2674L22.1465 67.2674C22.8149 67.2674 23.3565 67.7963 23.3565 68.4488C23.3565 69.1012 22.8149 69.6302 22.1465 69.6302Z" fill="#F9572B"/>
<path d="M8.75796 69.6306C8.25233 69.6306 7.78866 69.3111 7.61847 68.8466C7.43872 68.3566 7.61817 67.7885 8.05467 67.4872C8.92305 66.8879 10.1607 67.6449 9.94388 68.6791C9.82939 69.2243 9.32916 69.6306 8.75796 69.6306Z" fill="white"/>
<path d="M20.2105 30.0298L14.1612 30.0298C13.4928 30.0298 12.9512 29.5009 12.9512 28.8484C12.9512 28.196 13.4928 27.667 14.1612 27.667L20.2105 27.667C20.8789 27.667 21.4205 28.196 21.4205 28.8484C21.4205 29.5009 20.8789 30.0298 20.2105 30.0298Z" fill="#F9572B"/>
<path d="M36.1813 30.0297L24.5664 30.0297C23.898 30.0297 23.3564 29.5008 23.3564 28.8484C23.3564 28.1959 23.898 27.667 24.5664 27.667L36.1813 27.667C36.8497 27.667 37.3913 28.1959 37.3913 28.8484C37.3911 29.5008 36.8494 30.0297 36.1813 30.0297Z" fill="white"/>
<path d="M8.75785 30.0304C8.26133 30.0304 7.808 29.7231 7.62917 29.2726C7.43877 28.7931 7.59754 28.2333 8.01291 27.9174C8.87281 27.2633 10.1652 28.0239 9.94363 29.079C9.82929 29.6239 9.32906 30.0304 8.75785 30.0304Z" fill="white"/>
<path d="M61.5851 31.7998C61.2582 31.7998 60.942 31.6704 60.7124 31.4365L54.905 25.5302C54.4421 25.0596 54.458 24.3117 54.9398 23.8599C55.4219 23.4081 56.1876 23.4235 56.6505 23.8941L61.296 28.6188L67.7738 16.6018C68.085 16.0245 68.8169 15.8026 69.4081 16.1066C69.9994 16.4105 70.2265 17.1249 69.9153 17.7023L62.6559 31.169C62.4749 31.5049 62.1395 31.7354 61.7544 31.7885C61.6979 31.7958 61.6413 31.7998 61.5851 31.7998Z" fill="#FCC63D"/>
</g>
<defs>
<clipPath id="clip0">
<rect width="79" height="77.1323" fill="white"/>
</clipPath>
</defs>
</svg>
