<svg width="139" height="113" viewBox="0 0 139 113" fill="none" xmlns="http://www.w3.org/2000/svg">
<g clip-path="url(#clip0)">
<path d="M100.887 50.1208V51.3998C100.887 52.967 101.198 54.5238 101.808 56.0105L105.371 64.7014H112.097V44.6529H107.613C103.899 44.6531 100.887 47.1009 100.887 50.1208Z" fill="#5A4146"/>
<path d="M131.584 53.907L127.791 64.7015L109.855 51.9436C107.378 51.9436 105.371 50.3115 105.371 48.2984C105.371 45.2788 108.382 42.8307 112.097 42.8307H127.79C130.267 42.8307 132.274 44.4628 132.274 46.4759V49.9016C132.274 51.2561 132.042 52.6041 131.584 53.907Z" fill="#694B4B"/>
<path d="M123.305 70.1703H109.854V78.2368H123.305V70.1703Z" fill="#E6AF78"/>
<path d="M109.855 73.5171C111.934 74.2039 114.202 74.5906 116.581 74.5906C118.96 74.5906 121.227 74.2039 123.306 73.5171V70.1693H109.855V73.5171Z" fill="#D29B6E"/>
<path d="M134.121 77.1028L123.306 74.5908L116.58 78.2189L109.855 74.5906L99.0392 77.1028C96.1517 77.7736 94.1611 79.919 94.1611 82.3602V95.6854C94.1611 96.692 95.1648 97.508 96.4031 97.508H136.758C137.996 97.508 139 96.692 139 95.6854V82.3602C139 79.9188 137.009 77.7736 134.121 77.1028Z" fill="#D5DCED"/>
<path d="M118.823 97.5077H114.339L115.46 78.2357H117.702L118.823 97.5077Z" fill="#AFB9D2"/>
<path d="M116.58 71.9918C109.151 71.9918 103.129 67.0958 103.129 61.0564V58.9211C103.129 57.9545 103.601 57.0273 104.442 56.3435L108.508 53.0385C109.368 52.3387 110.546 51.9363 111.762 51.9674C118.929 52.1513 125.273 53.3994 128.74 56.1526C129.589 56.8267 130.032 57.7695 130.032 58.734V61.0564C130.032 67.096 124.01 71.9918 116.58 71.9918Z" fill="#F0C087"/>
<path d="M109.855 59.3731C109.855 57.2707 112.027 55.5995 114.608 55.7333C119.133 55.9681 125.849 56.583 129.97 58.1941C129.835 57.4252 129.429 56.6993 128.74 56.1524C125.273 53.3991 118.929 52.151 111.762 51.9672L111.762 51.9674V51.9672C110.546 51.9361 109.368 52.3386 108.508 53.0383L104.442 56.3431C103.601 57.0266 103.129 57.9538 103.129 58.9207V61.056C103.129 66.043 107.239 70.2419 112.853 71.5568C110.985 69.6826 109.855 67.3034 109.855 64.7011L109.855 59.3731Z" fill="#E6AF78"/>
<path d="M130.033 87.791C130.033 86.3408 130.741 84.9501 132.003 83.9248L137.774 79.2333C138.545 80.1296 139 81.2086 139 82.3604V95.6856C139 96.6922 137.997 97.5082 136.758 97.5082H130.033V87.791Z" fill="#C7CFE2"/>
<path d="M117.702 81.8809H115.46C114.841 81.8809 114.339 81.4728 114.339 80.9696V78.2357H118.823V80.9696C118.823 81.4728 118.321 81.8809 117.702 81.8809Z" fill="#959CB5"/>
<path d="M116.58 78.2192L112.78 80.5787C112.126 80.9852 111.179 80.8223 110.784 80.2348L107.375 75.1741L108.747 73.4727C109.051 73.0953 109.7 73.0311 110.107 73.3379L116.58 78.2192Z" fill="#C7CFE2"/>
<path d="M116.58 78.2192L120.38 80.5789C121.035 80.9855 121.981 80.8226 122.377 80.2351L125.785 75.1744L124.413 73.473C124.109 73.0956 123.46 73.0313 123.053 73.3381L116.58 78.2192Z" fill="#C7CFE2"/>
<path d="M40.1312 71.2308C38.2153 67.1041 36.6958 60.01 36.3676 56.3166C35.7432 49.288 29.2278 43.5586 20.4203 43.5586C11.6128 43.5586 5.09748 49.2883 4.47306 56.3166C4.14484 60.0098 2.62534 67.1041 0.709473 71.2308C0.287314 72.1405 0.774629 73.1436 1.87658 73.5497C3.92955 74.3061 8.30669 75.7879 13.5857 76.365H27.2547C32.509 75.7865 36.9168 74.3039 38.9638 73.5497C40.066 73.1436 40.5533 72.1405 40.1312 71.2308Z" fill="#5A4146"/>
<path d="M38.9643 73.55C40.066 73.1439 40.5536 72.1408 40.1312 71.231C38.2156 67.1043 36.6958 60.0103 36.3679 56.3168C35.7437 49.2883 29.2281 43.5588 20.4209 43.5588C20.3986 43.5588 20.3766 43.5588 20.3544 43.5591C13.5963 43.5814 11.208 51.074 17.0257 53.8696C17.3751 54.0376 17.5991 54.1184 17.5991 54.1184L22.6945 76.3652H27.2552C32.5095 75.7863 36.9173 74.3039 38.9643 73.55Z" fill="#694B4B"/>
<path d="M36.6368 80.0243L29.3817 77.0755C27.8624 76.458 26.9027 75.1956 26.903 73.8148L26.9036 68.3469H13.4515V73.8151C13.4515 75.1958 12.4921 76.4578 10.9729 77.0753L3.71771 80.0243C1.43914 80.9504 0 82.8436 0 84.9144V95.6852C0 96.6916 1.00368 97.5077 2.24192 97.5077H38.1129C39.3511 97.5077 40.3548 96.6916 40.3548 95.6852V84.9147C40.3548 82.8436 38.9154 80.9504 36.6368 80.0243Z" fill="#E6AF78"/>
<path d="M20.1777 75.6369C22.5917 75.6369 24.9039 75.2324 27.0237 74.5122C26.968 74.2825 26.9032 74.0541 26.9032 73.8146L26.9037 68.3467H13.4516V73.8148C13.4516 74.0556 13.3868 74.2851 13.3306 74.5158C15.4517 75.2322 17.7628 75.6369 20.1777 75.6369Z" fill="#D29B6E"/>
<path d="M36.6368 80.0243L31.4683 77.9234C29.0716 80.9321 24.9149 82.9274 20.1775 82.9274C15.4401 82.9274 11.2832 80.9321 8.8865 77.9232L3.71798 80.0243C1.43941 80.9504 0 82.8436 0 84.9144V95.6852C0 96.6918 1.00368 97.5077 2.24192 97.5077H38.1129C39.3511 97.5077 40.3548 96.6918 40.3548 95.6852V84.9146C40.3548 82.8436 38.9154 80.9504 36.6368 80.0243Z" fill="#D5DCED"/>
<path d="M20.1772 71.9918C13.338 71.9918 7.69111 67.8426 6.83729 62.4718C6.71349 61.6936 7.17366 60.9306 8.03535 60.5773C9.06753 60.154 10.5675 59.4402 12.0036 58.3985C13.6029 57.2385 14.5412 56.0151 15.0711 55.1171C15.5275 54.3437 16.5765 53.9063 17.5989 54.1184C25.4926 55.7551 30.8666 59.0937 32.8164 60.4568C33.3399 60.8227 33.6415 61.3623 33.5877 61.922C33.0445 67.5566 27.248 71.9918 20.1772 71.9918Z" fill="#F0C087"/>
<path d="M32.8166 60.4565C30.8671 59.0935 25.4928 55.7549 17.5991 54.1182C16.5767 53.9061 15.5276 54.3435 15.0713 55.1168C14.67 55.797 14.0068 56.6635 13.0227 57.5481C13.0224 57.5503 13.0216 57.5521 13.0213 57.5543C12.7159 57.8357 12.3906 58.1177 12.0041 58.3985C10.5679 59.4404 9.06795 60.1539 8.03577 60.5773C7.17408 60.9306 6.71418 61.6938 6.83771 62.472C7.60465 67.2955 12.2476 71.1348 18.1382 71.8671C15.4541 70.3826 13.4519 68.3411 13.4519 64.7017V62.1027C13.9612 61.7971 14.474 61.4923 14.9893 61.1184C16.2354 60.2144 17.3232 59.1689 18.1955 58.0434C24.2342 59.5753 28.3281 62.1268 29.8802 63.2118C30.3051 63.5146 31.3595 64.3047 32.5932 65.2456C33.1239 64.2072 33.4749 63.093 33.5876 61.9222C33.6416 61.3623 33.34 60.8227 32.8166 60.4565Z" fill="#E6AF78"/>
<path d="M1.36665 81.629C0.503061 82.5608 0 83.7039 0 84.9144V95.6852C0 96.6918 1.00368 97.5077 2.24192 97.5077H8.96767V88.3243C8.96767 87.217 8.34842 86.1696 7.28474 85.4779L1.36665 81.629Z" fill="#C7CFE2"/>
<path d="M101.71 77.537L82.9516 71.9916L69.5001 75.6369L56.0486 71.9918L37.2904 77.5372C33.7464 78.5849 31.3872 81.3229 31.3872 84.3885V95.6854C31.3872 96.6918 32.3909 97.5079 33.6291 97.5079H105.371C106.609 97.5079 107.613 96.6918 107.613 95.6854V84.3885C107.613 81.3227 105.254 78.5846 101.71 77.537Z" fill="#FF507D"/>
<path d="M67.1513 79.2823L65.0161 97.5077H73.9838L71.8486 79.2823H67.1513Z" fill="#707487"/>
<path d="M71.8537 81.7862H67.1461C66.2793 81.7862 65.5767 81.215 65.5767 80.5103V75.637H73.4228V80.5103C73.4231 81.2148 72.7205 81.7862 71.8537 81.7862Z" fill="#5B5D6E"/>
<path d="M105.199 79.4211C106.713 80.7421 107.613 82.5013 107.613 84.3883V95.6852C107.613 96.6918 106.609 97.5078 105.371 97.5078H94.1611V91.4146C94.1611 89.481 95.1059 87.6267 96.7878 86.2596L105.199 79.4211Z" fill="#D23C69"/>
<path d="M94.1611 34.4052V19.137C94.1611 17.1237 92.1535 15.4918 89.6773 15.4918H62.774C52.8686 15.4918 44.8384 22.0198 44.8384 30.0726V34.4052C44.8384 36.3642 45.2269 38.3103 45.9889 40.1686L46.7352 41.9888C46.9638 42.5463 47.0803 43.13 47.0803 43.7178V44.6531H91.9189V43.7178C91.9189 43.13 92.0354 42.5463 92.264 41.9888L93.0103 40.1686C93.7726 38.3101 94.1611 36.3639 94.1611 34.4052Z" fill="#5A4146"/>
<path d="M56.0483 22.896C56.0483 26.9852 60.126 30.3001 65.1561 30.3001H66.4171L67.0258 44.6529H91.919V43.7175C91.919 43.1298 92.0355 42.546 92.2641 41.9886L93.0104 40.1684C93.7724 38.3101 94.1609 36.3639 94.1609 34.405V19.137C94.1609 17.1237 92.1533 15.4918 89.6771 15.4918H65.1561C60.126 15.4918 56.0483 18.8068 56.0483 22.896Z" fill="#694B4B"/>
<path d="M82.952 59.2345H56.0479V75.6371H82.952V59.2345Z" fill="#E6AF78"/>
<path d="M56.0486 65.3966C60.009 67.2617 64.5941 68.3465 69.5001 68.3465C74.4061 68.3465 78.9915 67.2617 82.9516 65.3966V59.2336H56.0483L56.0486 65.3966Z" fill="#D29B6E"/>
<path d="M69.4998 75.6369L62.3494 81.4498C61.3884 82.2311 59.7999 82.143 58.9784 81.2629L51.5645 73.3211L53.5037 69.9989C54.076 69.0185 55.5686 68.6592 56.705 69.2286L69.4998 75.6369Z" fill="#D23C69"/>
<path d="M69.5 75.6369L76.6504 81.4498C77.6114 82.2311 79.1999 82.143 80.0214 81.2629L87.4353 73.3211L85.4961 69.9989C84.9238 69.0185 83.4312 68.6592 82.2948 69.2286L69.5 75.6369Z" fill="#D23C69"/>
<path d="M69.5 64.7015C57.1182 64.7015 47.0806 56.5415 47.0806 46.4757V44.3403C47.0806 43.3737 47.5529 42.4465 48.3937 41.7628L50.251 40.2529C51.0917 39.5694 51.5641 38.6422 51.5641 37.6753V33.3063C51.5641 32.4623 52.2613 31.7292 53.2715 31.5352C58.5739 30.5171 75.0739 28.1054 86.3027 34.8192C87.0319 35.2551 87.4351 35.9713 87.4351 36.7071V37.6753C87.4351 38.642 87.9075 39.5692 88.7483 40.2529L90.6055 41.7628C91.4463 42.4463 91.9186 43.3734 91.9186 44.3403V46.4757C91.9195 56.5415 81.8819 64.7015 69.5 64.7015Z" fill="#F0C087"/>
<path d="M86.303 34.8195C78.4055 30.0975 67.9151 29.8931 60.5324 30.5396C57.4182 30.8122 54.845 31.2335 53.272 31.5354C52.2618 31.7294 51.5647 32.4626 51.5647 33.3065V37.6754C51.5647 38.6423 51.0923 39.5694 50.2512 40.2532L48.394 41.763C47.5529 42.4467 47.0806 43.3739 47.0806 44.3408V46.4759C47.0806 55.7949 55.6893 63.4667 66.7909 64.5559C62.9225 61.2809 60.5321 56.8428 60.5321 51.9436V38.6217C60.5321 36.7747 62.2215 35.2311 64.4757 35.0013C69.8559 34.4529 79.7103 34.1231 87.4351 37.6758V36.7074C87.4356 35.9715 87.0317 35.2551 86.303 34.8195Z" fill="#E6AF78"/>
<path d="M33.8004 79.4211C32.2866 80.7421 31.3872 82.5013 31.3872 84.3883V95.6852C31.3872 96.6918 32.3909 97.5078 33.6291 97.5078H44.8387V91.4146C44.8387 89.481 43.8939 87.6267 42.2121 86.2596L33.8004 79.4211Z" fill="#D23C69"/>
</g>
<defs>
<clipPath id="clip0">
<rect width="139" height="113" fill="white"/>
</clipPath>
</defs>
</svg>
