<svg width="115" height="114" viewBox="0 0 115 114" fill="none" xmlns="http://www.w3.org/2000/svg">
<path d="M102.899 29.996C100.517 31.1382 99.5207 33.9794 100.673 36.3394C103.821 42.7859 105.417 49.7347 105.417 57C105.417 83.1911 83.9208 104.5 57.5 104.5C31.0792 104.5 9.58333 83.1911 9.58333 57C9.58333 30.8089 31.0792 9.5 57.5 9.5C68.4485 9.5 78.7338 13.0439 87.2467 19.748C89.3115 21.382 92.3308 21.0399 93.9791 18.9861C95.6274 16.9335 95.2823 13.9438 93.2094 12.3122C83.1312 4.37195 70.449 0 57.5 0C25.7962 0 0 25.5718 0 57C0 88.4282 25.7962 114 57.5 114C89.2038 114 115 88.4282 115 57C115 48.2909 113.081 39.9448 109.298 32.2028C108.148 29.8371 105.273 28.8514 102.899 29.996Z" fill="#00213C"/>
<path d="M57.5 19C54.855 19 52.7083 21.128 52.7083 23.75V57C52.7083 59.622 54.855 61.75 57.5 61.75H81.4583C84.1034 61.75 86.25 59.622 86.25 57C86.25 54.378 84.1034 52.25 81.4583 52.25H62.2917V23.75C62.2917 21.128 60.145 19 57.5 19Z" fill="#00213C"/>
</svg>
