<svg width="67" height="65" viewBox="0 0 67 65" fill="none" xmlns="http://www.w3.org/2000/svg">
<path d="M48.3086 22.1875C49.3309 23.1794 49.3309 24.7871 48.3086 25.7784L30.7509 42.8125C29.7286 43.8038 28.0719 43.8038 27.0496 42.8125L18.6914 34.7033C17.6691 33.712 17.6691 32.1043 18.6914 31.1129C19.7132 30.1211 21.3705 30.1211 22.3923 31.1129L28.9 37.4264L44.6072 22.1875C45.6295 21.1962 47.2868 21.1962 48.3086 22.1875ZM67 32.5C67 50.4644 52.0146 65 33.5 65C14.9829 65 0 50.4619 0 32.5C0 14.5356 14.9854 0 33.5 0C52.0171 0 67 14.5381 67 32.5ZM61.7656 32.5C61.7656 17.3425 49.1218 5.07812 33.5 5.07812C17.8761 5.07812 5.23438 17.3445 5.23438 32.5C5.23438 47.6575 17.8782 59.9219 33.5 59.9219C49.1239 59.9219 61.7656 47.6555 61.7656 32.5Z" fill="black"/>
</svg>
