<svg width="51" height="44" viewBox="0 0 51 44" fill="none" xmlns="http://www.w3.org/2000/svg">
<path d="M3.32671 3.04116C-0.669521 6.60566 0.148372 10.3922 0.148372 21.8954C0.148372 31.448 -1.79254 41.0243 8.36545 43.2788C11.5374 43.9793 39.6425 43.9793 42.8102 43.2751C47.0395 42.3381 50.4806 39.3922 50.951 34.2556C51.0167 33.5387 51.0167 10.2648 50.9489 9.53333C50.4488 4.06193 46.5267 0.908642 41.3588 0.269979C40.1743 0.122595 39.937 0.0789258 33.86 0.0698281C12.3045 0.0789258 7.57934 -0.745332 3.32671 3.04116Z" fill="white"/>
<path d="M25.0004 5.72831C18.0372 5.72831 11.425 5.17361 8.89941 10.9782C7.85618 13.3757 8.00767 16.4892 8.00767 20.9474C8.00767 24.8596 7.86768 28.5364 8.89941 30.9149C11.4193 36.723 18.0852 36.1666 24.9966 36.1666C31.6644 36.1666 38.5394 36.7882 41.0957 30.9149C42.1408 28.4935 41.9874 25.4263 41.9874 20.9474C41.9874 15.002 42.3537 11.1637 39.1339 8.282C35.8738 5.36251 31.465 5.72831 24.9928 5.72831H25.0004ZM23.4778 8.47091C38.0024 8.45031 39.8511 7.0043 38.8309 27.0921C38.4684 34.1968 32.4277 33.4171 25.0023 33.4171C11.4634 33.4171 11.0741 33.0702 11.0741 20.9406C11.0741 8.67013 12.148 8.47778 23.4778 8.46748V8.47091ZM34.0711 10.9971C32.9455 10.9971 32.0326 11.8146 32.0326 12.8227C32.0326 13.8308 32.9455 14.6482 34.0711 14.6482C35.1968 14.6482 36.1097 13.8308 36.1097 12.8227C36.1097 11.8146 35.1968 10.9971 34.0711 10.9971ZM25.0004 13.1318C20.1812 13.1318 16.2749 16.6317 16.2749 20.9474C16.2749 25.2631 20.1812 28.7614 25.0004 28.7614C29.8196 28.7614 33.724 25.2631 33.724 20.9474C33.724 16.6317 29.8196 13.1318 25.0004 13.1318ZM25.0004 15.8744C32.489 15.8744 32.4986 26.0205 25.0004 26.0205C17.5137 26.0205 17.5022 15.8744 25.0004 15.8744Z" fill="#00213C"/>
</svg>
