<svg width="54" height="47" viewBox="0 0 54 47" fill="none" xmlns="http://www.w3.org/2000/svg">
<rect width="54" height="47" rx="12" fill="white"/>
<path d="M10.6182 22.7824L18.6829 26.2395L21.8045 37.7695C22.0042 38.508 22.7904 38.7809 23.3123 38.2909L27.8077 34.0818C28.2789 33.6408 28.9501 33.6188 29.4425 34.0294L37.5506 40.7905C38.1089 41.2565 38.8998 40.9052 39.0398 40.1304L44.9794 7.31578C45.1322 6.46945 44.4082 5.76342 43.7065 6.0751L10.6088 20.7399C9.79197 21.1016 9.79909 22.4298 10.6182 22.7824ZM21.3014 24.3992L37.0628 13.2497C37.3461 13.0499 37.6375 13.4898 37.3943 13.749L24.3865 27.6364C23.9293 28.1252 23.6344 28.7794 23.5508 29.4895L23.1077 33.2609C23.0491 33.7645 22.4332 33.8145 22.3122 33.3271L20.608 26.4497C20.4129 25.6653 20.6973 24.8274 21.3014 24.3992Z" fill="#00213C"/>
</svg>
