<svg width="54" height="47" viewBox="0 0 54 47" fill="none" xmlns="http://www.w3.org/2000/svg">
<rect width="54" height="47" rx="12" fill="white"/>
<path d="M38.8735 21.6513C38.2915 20.818 38.458 20.4473 38.8735 19.7025C38.881 19.694 43.6857 12.1678 44.1807 9.61543L44.1837 9.61373C44.4297 8.68358 44.1837 8 42.9942 8H39.058C38.056 8 37.594 8.58666 37.3465 9.24303C37.3465 9.24303 35.3424 14.6811 32.5073 18.2061C31.5923 19.2247 31.1693 19.5512 30.6698 19.5512C30.4237 19.5512 30.0412 19.2247 30.0412 18.2946V9.61373C30.0412 8.49823 29.7607 8 28.9312 8H22.742C22.1135 8 21.7399 8.52034 21.7399 9.00497C21.7399 10.0627 23.1575 10.3058 23.3045 13.2816V19.7383C23.3045 21.153 23.078 21.4132 22.5755 21.4132C21.2374 21.4132 17.9898 15.953 16.0652 9.70386C15.6767 8.49143 15.2972 8.0017 14.2877 8.0017H10.35C9.22651 8.0017 9 8.58836 9 9.24473C9 10.4044 10.338 16.1707 15.2222 23.7887C18.4773 28.9887 23.0615 31.8064 27.2316 31.8064C29.7382 31.8064 30.0442 31.1806 30.0442 30.1042C30.0442 25.1355 29.8177 24.6662 31.0733 24.6662C31.6553 24.6662 32.6573 24.9927 34.9974 27.5008C37.672 30.4749 38.1115 31.8064 39.6086 31.8064H43.5447C44.6667 31.8064 45.2353 31.1806 44.9082 29.9461C44.1597 27.3495 39.1015 22.0084 38.8735 21.6513Z" fill="#00213C"/>
</svg>
