<svg width="51" height="46" viewBox="0 0 51 46" fill="none" xmlns="http://www.w3.org/2000/svg">
<rect width="51" height="46" rx="12" fill="white"/>
<path fill-rule="evenodd" clip-rule="evenodd" d="M38.6092 10.941C35.131 7.75645 30.5053 6.00187 25.5774 6C15.4229 6 7.15861 13.5577 7.15453 22.8466C7.15317 25.816 8.00138 28.7147 9.61362 31.2697L7 40L16.7662 37.6571C19.4572 38.9995 22.4868 39.707 25.5699 39.7078H25.5776C35.731 39.7078 43.9961 32.1495 44 22.8601C44.002 18.3582 42.0876 14.1254 38.6092 10.941ZM25.5774 36.8625H25.571C22.8235 36.8615 20.1289 36.1862 17.7776 34.9106L17.2187 34.607L11.4233 35.9974L12.9702 30.8299L12.606 30.3001C11.0731 28.0705 10.2637 25.4936 10.2651 22.8477C10.2683 15.1269 17.1375 8.84551 25.5835 8.84551C29.6734 8.84675 33.5181 10.3052 36.409 12.9521C39.2999 15.599 40.891 19.1173 40.8897 22.8591C40.886 30.5805 34.0173 36.8625 25.5774 36.8625ZM33.9764 26.3747C33.5163 26.1638 31.253 25.1458 30.8309 25.0051C30.4093 24.8646 30.1021 24.7946 29.7955 25.2159C29.4885 25.6372 28.6065 26.5855 28.3378 26.8663C28.0691 27.1473 27.8009 27.1826 27.3405 26.9717C26.8801 26.7611 25.397 26.3164 23.6386 24.8822C22.2703 23.766 21.3465 22.3874 21.0779 21.9661C20.8096 21.5445 21.0756 21.3386 21.2798 21.107C21.7781 20.5411 22.2771 19.9478 22.4305 19.667C22.5841 19.386 22.5072 19.1401 22.3919 18.9295C22.2771 18.7189 21.3565 16.6468 20.973 15.8036C20.5991 14.9831 20.2199 15.0939 19.9372 15.0811C19.6689 15.0688 19.3619 15.0663 19.0549 15.0663C18.7481 15.0663 18.2494 15.1715 17.8273 15.5932C17.4055 16.0147 16.2164 17.033 16.2164 19.1051C16.2164 21.1771 17.8659 23.1789 18.096 23.4599C18.3261 23.7408 21.342 27.9929 25.9595 29.8162C27.0578 30.2503 27.9151 30.5091 28.5838 30.7031C29.6866 31.0235 30.6898 30.9783 31.4831 30.87C32.3676 30.749 34.2063 29.8515 34.5903 28.8682C34.9737 27.8848 34.9737 27.0421 34.8585 26.8663C34.7436 26.6907 34.4366 26.5855 33.9764 26.3747Z" fill="#00213C"/>
</svg>
